# xmcd
#
# Track frame offsets:
#	180
#	12246
#	27429
#	40422
#	52909
#	65900
#	77564
#	93603
#	105795
#	119091
#	133698
#	146599
#	169680
#	184399
#	196747
#	211098
#	224459
#	238273
#
# Disc length: 3351 seconds
#
# Revision: 1
# Processed by: cddbd v1.5.2PL0 Copyright (c) Steve Scherf et al.
# Submitted via: audiograbber 1.83.01
#
DISCID=070d1512
DTITLE=Various Artist - Blues Festival CD 9
DYEAR=2005
DGENRE=Blues
TTITLE0=Peter Chatman and his Washboard Band - blues At Midnight
TTITLE1=Muddy Waters - Country Blues
TTITLE2=John Lee 'Sopnny Boy' Williamson - Whiskey Headed Blues
TTITLE3=Lightnin' Hopkins - Fast Mail Rambler
TTITLE4=Leroy Carr - Mean Mistreater Mama
TTITLE5=Brownie Mc Ghee - I'm Callin' Daisy
TTITLE6=Gig Bill Bronzy - the Southern Blues
TTITLE7=John Lee Hooker - House Rent Boogie
TTITLE8=Champion Jack Dupree - Cabbage Greens N° 1
TTITLE9=Big Bill Broonzy - Southern Flood Blues
TTITLE10=Big Joe Turner - Piney Brown Blues
TTITLE11=John Lee Hooker - Roll And Rumble
TTITLE12=Bessie Smith - Aggravatin' Papa
TTITLE13=Brownie Mc Ghee - Barbecue Any Old Time
TTITLE14=John Lee Hooker - Do The Boogie
TTITLE15=Big Joe Turner ) - Goin' To Chicago Blues
TTITLE16=Bessie Smith - Gulf Coast Blues
TTITLE17=Leadbelly - My Baby Quit Me
EXTD=Blue festival CD 9 de 10
EXTT0=
EXTT1=
EXTT2=
EXTT3=
EXTT4=
EXTT5=
EXTT6=
EXTT7=
EXTT8=
EXTT9=
EXTT10=
EXTT11=
EXTT12=
EXTT13=
EXTT14=
EXTT15=
EXTT16=
EXTT17=
PLAYORDER=
